<svg width="206" height="203" viewBox="0 0 206 203" fill="none" xmlns="http://www.w3.org/2000/svg">
<ellipse cx="103" cy="101.5" rx="103" ry="101.5" fill="white"/>
<ellipse cx="103.5" cy="101.5" rx="85.5" ry="87.5" fill="#0B2742"/>
<circle cx="103.5" cy="96.5" r="7.5" fill="white"/>
<rect x="94" y="105" width="19" height="10" rx="5" fill="white"/>
<rect x="100" y="104" width="7" height="2" rx="1" fill="#0B2742"/>
<ellipse cx="50.5" cy="63" rx="5.5" ry="5" fill="white"/>
<rect x="44" y="69" width="13" height="7" rx="3.5" fill="white"/>
<rect x="48" y="68" width="5" height="2" rx="1" fill="#0B2742"/>
<ellipse cx="103.5" cy="34" rx="5.5" ry="5" fill="white"/>
<rect x="97" y="40" width="13" height="7" rx="3.5" fill="white"/>
<rect x="101" y="39" width="5" height="2" rx="1" fill="#0B2742"/>
<ellipse cx="166.5" cy="104" rx="5.5" ry="5" fill="white"/>
<rect x="160" y="110" width="13" height="7" rx="3.5" fill="white"/>
<rect x="164" y="109" width="5" height="2" rx="1" fill="#0B2742"/>
<ellipse cx="68.5" cy="155" rx="5.5" ry="5" fill="white"/>
<rect x="62" y="161" width="13" height="7" rx="3.5" fill="white"/>
<rect x="66" y="160" width="5" height="2" rx="1" fill="#0B2742"/>
<rect x="101" y="52" width="4" height="29" fill="white"/>
<circle cx="103" cy="54" r="4" fill="white"/>
<rect x="150.068" y="108.109" width="4" height="29" transform="rotate(91.0459 150.068 108.109)" fill="white"/>
<circle cx="148.032" cy="110.072" r="4" transform="rotate(91.0459 148.032 110.072)" fill="white"/>
<rect x="78.1816" y="146.99" width="4" height="29" transform="rotate(-149.362 78.1816 146.99)" fill="white"/>
<circle cx="77.48" cy="144.25" r="4" transform="rotate(-149.362 77.48 144.25)" fill="white"/>
<rect x="61.753" y="76.1548" width="4" height="29" transform="rotate(-58.2642 61.753 76.1548)" fill="white"/>
<circle cx="64.5059" cy="75.506" r="4" transform="rotate(-58.2642 64.5059 75.506)" fill="white"/>
</svg>
