<svg width="147" height="168" viewBox="0 0 147 168" fill="none" xmlns="http://www.w3.org/2000/svg">
<rect y="149" width="143" height="18" rx="9" fill="white"/>
<rect x="146" y="24" width="143" height="18" rx="9" transform="rotate(89.6787 146 24)" fill="white"/>
<rect x="32" y="84" width="16" height="58" fill="white"/>
<rect x="64" y="60" width="16" height="82" fill="white"/>
<rect x="96" y="33" width="16" height="109" fill="white"/>
<path d="M119.48 4.24523C119.615 3.42795 119.063 2.65562 118.245 2.52018L104.927 0.313142C104.11 0.177705 103.337 0.730449 103.202 1.54773C103.066 2.36502 103.619 3.13734 104.436 3.27278L116.275 5.2346L114.313 17.0731C114.178 17.8904 114.73 18.6628 115.548 18.7982C116.365 18.9336 117.137 18.3809 117.273 17.5636L119.48 4.24523ZM16.873 78.2198L118.873 5.2198L117.127 2.78021L15.127 75.7802L16.873 78.2198Z" fill="white"/>
</svg>
